name analog
datacolumns 19
datarows 41
range 0.0 0.02
endheader
time	ground_force_vx	ground_force_vy	ground_force_vz	ground_force_px	ground_force_py	ground_force_pz	l_ground_force_vx	l_ground_force_vy	l_ground_force_vz	l_ground_force_px	l_ground_force_py	l_ground_force_pz	ground_torque_x	ground_torque_y	ground_torque_z	l_ground_torque_x	l_ground_torque_y	l_ground_torque_z
0.0	-0.0	-0.0	-0.0	3.907655477523804	22.995643615722656	-391.1592102050781	-4.299507141113281	-23.193302154541016	-329.6689147949219	-0.0	-0.0	-0.0	-0.0	-0.0	-0.0	99389.5859375	291.9635314941406	-3877.130615234375
0.0005	-0.0	-0.0	-0.0	3.4967002868652344	23.19137954711914	-393.1585083007813	-4.476851463317871	-23.140281677246094	-328.4130554199219	-0.0	-0.0	-0.0	-0.0	-0.0	-0.0	99385.8203125	324.34283447265625	-3902.9755859375
0.001	-0.0	-0.0	-0.0	3.722895860671997	23.35873031616211	-392.9944763183594	-4.571725845336914	-23.411460876464844	-328.669677734375	-0.0	-0.0	-0.0	-0.0	-0.0	-0.0	99216.0234375	300.1552429199219	-3950.34130859375
0.0015	-0.0	-0.0	-0.0	3.56842041015625	23.22849464416504	-392.8729553222656	-4.719080448150635	-23.18127822875977	-327.0865478515625	-0.0	-0.0	-0.0	-0.0	-0.0	-0.0	99377.7734375	426.6887512207031	-3954.5615234375
0.002	-0.0	-0.0	-0.0	3.293957471847534	23.65388298034668	-394.8551635742188	-4.902895450592041	-23.245830535888672	-328.2450561523437	-0.0	-0.0	-0.0	-0.0	-0.0	-0.0	99158.21875	324.4681091308594	-3879.461669921875
0.0025	-0.0	-0.0	-0.0	3.901213169097901	23.84587287902832	-395.4386901855469	-4.524250030517578	-23.33403778076172	-326.92596435546875	-0.0	-0.0	-0.0	-0.0	-0.0	-0.0	99324.71875	414.5894165039063	-3838.030517578125
0.003	-0.0	-0.0	-0.0	3.4042835235595703	23.554492950439453	-395.5720825195313	-4.531058311462402	-23.181053161621094	-327.06109619140625	-0.0	-0.0	-0.0	-0.0	-0.0	-0.0	99087.7734375	356.0750732421875	-3948.71923828125
0.0035	-0.0	-0.0	-0.0	3.3176698684692383	23.69182014465332	-396.0101623535156	-4.595953941345215	-23.269332885742188	-327.8533935546875	-0.0	-0.0	-0.0	-0.0	-0.0	-0.0	98887.640625	357.2089538574219	-3981.854736328125
0.004	-0.0	-0.0	-0.0	3.1539008617401123	23.821945190429688	-398.0416870117188	-4.653791427612305	-23.22158432006836	-326.83367919921875	-0.0	-0.0	-0.0	-0.0	-0.0	-0.0	98759.7734375	485.896240234375	-4008.205322265625
0.0045000000000000005	-0.0	-0.0	-0.0	3.86934757232666	23.95191192626953	-397.6445617675781	-4.742424964904785	-22.81804084777832	-326.805908203125	-0.0	-0.0	-0.0	-0.0	-0.0	-0.0	98833.78125	465.3908081054688	-3922.4130859375
0.005	-0.0	-0.0	-0.0	3.7876250743865967	23.92769432067871	-397.3274536132813	-4.766377925872803	-23.42187118530273	-328.64617919921875	-0.0	-0.0	-0.0	-0.0	-0.0	-0.0	99066.484375	343.4654846191406	-4005.95751953125
0.0055	-0.0	-0.0	-0.0	3.633378744125366	24.089439392089844	-398.6098937988281	-4.668508052825928	-23.381309509277344	-327.1257019042969	-0.0	-0.0	-0.0	-0.0	-0.0	-0.0	99213.03125	438.19573974609375	-3970.656005859375
0.006	-0.0	-0.0	-0.0	3.7795157432556152	24.20287704467773	-397.3589172363281	-4.524250030517578	-23.27655601501465	-328.10772705078125	-0.0	-0.0	-0.0	-0.0	-0.0	-0.0	99195.6640625	266.1522827148437	-4013.775390625
0.006500000000000001	-0.0	-0.0	-0.0	3.657630920410156	23.99232292175293	-399.5108947753906	-4.54063892364502	-23.01164054870605	-327.9786376953125	-0.0	-0.0	-0.0	-0.0	-0.0	-0.0	99277.1171875	376.6480102539063	-3940.85009765625
0.007	-0.0	-0.0	-0.0	3.698129892349243	24.24346923828125	-398.386962890625	-4.387247562408447	-23.124080657958984	-328.3285522460937	-0.0	-0.0	-0.0	-0.0	-0.0	-0.0	99385.53125	258.67578125	-3967.826904296875
0.0075	-0.0	-0.0	-0.0	3.5440258979797363	24.065208435058597	-399.9928283691406	-4.604933738708496	-22.859230041503903	-329.25	-0.0	-0.0	-0.0	-0.0	-0.0	-0.0	99665.6953125	204.4835205078125	-3860.00341796875
0.008	-0.0	-0.0	-0.0	3.909313678741455	24.2031364440918	-400.6994018554688	-4.25811767578125	-23.003751754760746	-329.02813720703125	-0.0	-0.0	-0.0	-0.0	-0.0	-0.0	99595.5390625	239.44674682617188	-3867.9150390625
0.0085	-0.0	-0.0	-0.0	4.217353343963623	23.91138458251953	-401.9187622070313	-4.322579383850098	-23.0843505859375	-329.2825927734375	-0.0	-0.0	-0.0	-0.0	-0.0	-0.0	99828.25	82.7391128540039	-3851.81591796875
0.009000000000000001	-0.0	-0.0	-0.0	4.498889923095703	24.065208435058597	-401.95355224609375	-4.322540760040283	-22.98781967163086	-330.2642517089844	-0.0	-0.0	-0.0	-0.0	-0.0	-0.0	100123.859375	468.8366088867188	-3959.52978515625
0.0095	-0.0	-0.0	-0.0	4.241950035095215	24.15433883666992	-403.075439453125	-4.226598739624023	-22.963638305664062	-330.4552001953125	-0.0	-0.0	-0.0	-0.0	-0.0	-0.0	100157.8984375	66.96534729003906	-3762.770751953125
0.01	-0.0	-0.0	-0.0	4.58981990814209	23.757768630981445	-403.7461242675781	-4.25811767578125	-23.52647399902344	-329.7908020019531	-0.0	-0.0	-0.0	-0.0	-0.0	-0.0	99937.265625	70.73475646972656	-3929.891845703125
0.0105	-0.0	-0.0	-0.0	4.402122497558594	24.53544044494629	-403.4898986816406	-4.1294779777526855	-23.01220703125	-330.0442810058594	-0.0	-0.0	-0.0	-0.0	-0.0	-0.0	100166.546875	188.52740478515625	-3908.123046875
0.011	-0.0	-0.0	-0.0	4.531028270721436	24.21885108947754	-405.1949462890625	-4.14497709274292	-22.978992462158203	-330.1051330566406	-0.0	-0.0	-0.0	-0.0	-0.0	-0.0	99966.640625	298.09820556640625	-3889.61669921875
0.0115	-0.0	-0.0	-0.0	4.99578857421875	23.96088218688965	-404.35357666015625	-4.193862438201904	-22.93929100036621	-328.4554443359375	-0.0	-0.0	-0.0	-0.0	-0.0	-0.0	99592.1171875	290.8037414550781	-3954.126708984375
0.012	-0.0	-0.0	-0.0	4.638946533203125	24.26402282714844	-404.5268859863281	-4.548744201660156	-22.88454246520996	-329.1535949707031	-0.0	-0.0	-0.0	-0.0	-0.0	-0.0	99835.5078125	259.25640869140625	-3921.602783203125
0.0125	-0.0	-0.0	-0.0	4.777646541595459	24.20378303527832	-404.6075744628906	-4.484604835510254	-23.02753448486328	-328.2025146484375	-0.0	-0.0	-0.0	-0.0	-0.0	-0.0	99494.453125	190.5942230224609	-3980.869873046875
0.013000000000000001	-0.0	-0.0	-0.0	5.114818096160889	24.57524681091309	-403.33148193359375	-4.29771900177002	-23.02751350402832	-327.697509765625	-0.0	-0.0	-0.0	-0.0	-0.0	-0.0	99519.46875	136.45050048828125	-3848.80908203125
0.0135	-0.0	-0.0	-0.0	5.3130316734313965	24.29781150817871	-404.2342529296875	-4.440806865692139	-23.01785469055176	-327.79461669921875	-0.0	-0.0	-0.0	-0.0	-0.0	-0.0	99174.6953125	212.653076171875	-3848.88232421875
0.014	-0.0	-0.0	-0.0	5.238575458526611	24.382244110107425	-404.1764831542969	-4.41090726852417	-23.01268577575684	-327.6981201171875	-0.0	-0.0	-0.0	-0.0	-0.0	-0.0	99020.203125	220.6690826416016	-3949.345947265625
0.0145	-0.0	-0.0	-0.0	5.338032245635986	24.114904403686523	-404.2347717285156	-4.563644886016846	-23.037288665771484	-327.5231628417969	-0.0	-0.0	-0.0	-0.0	-0.0	-0.0	99032.484375	179.8738555908203	-4015.352783203125
0.015	-0.0	-0.0	-0.0	5.827646732330322	24.510860443115234	-403.98052978515625	-4.445614814758301	-22.71323013305664	-326.10760498046875	-0.0	-0.0	-0.0	-0.0	-0.0	-0.0	98863.171875	311.9730529785156	-4008.68701171875
0.0155	-0.0	-0.0	-0.0	5.427475929260254	24.303895950317383	-405.5493469238281	-4.602730751037598	-22.953453063964844	-327.4471435546875	-0.0	-0.0	-0.0	-0.0	-0.0	-0.0	98998.6484375	258.79400634765625	-3957.841796875
0.016	-0.0	-0.0	-0.0	5.6595234870910645	24.050933837890625	-403.9812927246094	-4.371589660644531	-22.826011657714844	-325.5067749023437	-0.0	-0.0	-0.0	-0.0	-0.0	-0.0	98700.09375	438.9075622558594	-3873.511962890625
0.0165	-0.0	-0.0	-0.0	5.584405899047852	24.282617568969727	-406.114013671875	-4.7798943519592285	-22.2779483795166	-325.6195678710937	-0.0	-0.0	-0.0	-0.0	-0.0	-0.0	98373.7890625	632.8104858398438	-3959.1611328125
0.017	-0.0	-0.0	-0.0	5.620262145996094	24.46080017089844	-403.31939697265625	-4.410700798034668	-22.62448501586914	-326.1635131835937	-0.0	-0.0	-0.0	-0.0	-0.0	-0.0	98557.2734375	397.4077758789063	-3962.506591796875
0.0175	-0.0	-0.0	-0.0	5.452957630157471	24.26852798461914	-404.2691955566406	-4.790382385253906	-22.737478256225582	-325.46484375	-0.0	-0.0	-0.0	-0.0	-0.0	-0.0	98523.4765625	664.8052978515625	-4026.860595703125
0.018000000000000002	-0.0	-0.0	-0.0	5.570028305053711	24.065208435058597	-404.2915954589844	-4.662766456604004	-22.73740768432617	-324.26385498046875	-0.0	-0.0	-0.0	-0.0	-0.0	-0.0	98345.484375	364.4116821289063	-3937.75439453125
0.0185	-0.0	-0.0	-0.0	5.14672327041626	24.716583251953125	-402.8695068359375	-4.765440940856934	-22.66283416748047	-325.2129821777344	-0.0	-0.0	-0.0	-0.0	-0.0	-0.0	98178.9140625	458.9897155761719	-3971.14306640625
0.019	-0.0	-0.0	-0.0	5.7367262840271	24.218297958374023	-403.8302001953125	-4.219367027282715	-22.582931518554688	-325.4194030761719	-0.0	-0.0	-0.0	-0.0	-0.0	-0.0	98281.8203125	405.6546325683594	-3886.373046875
0.0195	-0.0	-0.0	-0.0	5.837453365325928	24.15433883666992	-403.59228515625	-4.421844959259033	-22.68741226196289	-325.36480712890625	-0.0	-0.0	-0.0	-0.0	-0.0	-0.0	98248.4609375	488.5703430175781	-3903.25830078125
0.02	-0.0	-0.0	-0.0	5.658954620361328	24.512466430664062	-404.0846862792969	-4.5357160568237305	-22.764163970947266	-322.71466064453125	-0.0	-0.0	-0.0	-0.0	-0.0	-0.0	98127.2890625	354.7135314941406	-3822.754150390625
